<svg width="24" height="25" viewBox="0 0 24 25" fill="none" xmlns="http://www.w3.org/2000/svg">
<g id="uil:arrow">
<path id="Vector" d="M6.28997 15.0177C6.19624 15.1107 6.12185 15.2213 6.07108 15.3431C6.02031 15.465 5.99417 15.5957 5.99417 15.7277C5.99417 15.8597 6.02031 15.9904 6.07108 16.1123C6.12185 16.2342 6.19624 16.3448 6.28997 16.4377L11.29 21.4377C11.3829 21.5315 11.4935 21.6058 11.6154 21.6566C11.7373 21.7074 11.868 21.7335 12 21.7335C12.132 21.7335 12.2627 21.7074 12.3845 21.6566C12.5064 21.6058 12.617 21.5315 12.71 21.4377L17.71 16.4377C17.8037 16.3448 17.8781 16.2342 17.9289 16.1123C17.9796 15.9904 18.0058 15.8597 18.0058 15.7277C18.0058 15.5957 17.9796 15.465 17.9289 15.3431C17.8781 15.2213 17.8037 15.1107 17.71 15.0177C17.617 14.924 17.5064 14.8496 17.3845 14.7988C17.2627 14.7481 17.132 14.7219 17 14.7219C16.868 14.7219 16.7373 14.7481 16.6154 14.7988C16.4935 14.8496 16.3829 14.924 16.29 15.0177L12 19.3177L7.70997 15.0177C7.61701 14.924 7.50641 14.8496 7.38455 14.7988C7.26269 14.7481 7.13198 14.7219 6.99997 14.7219C6.86796 14.7219 6.73725 14.7481 6.61539 14.7988C6.49353 14.8496 6.38293 14.924 6.28997 15.0177ZM11.29 4.01772L6.28997 9.01772C6.19673 9.11096 6.12277 9.22165 6.07231 9.34347C6.02185 9.46529 5.99588 9.59586 5.99588 9.72772C5.99588 9.99402 6.10167 10.2494 6.28997 10.4377C6.38321 10.531 6.4939 10.6049 6.61572 10.6554C6.73754 10.7058 6.86811 10.7318 6.99997 10.7318C7.26627 10.7318 7.52167 10.626 7.70997 10.4377L12 6.13772L16.29 10.4377C16.3829 10.5315 16.4935 10.6058 16.6154 10.6566C16.7373 10.7074 16.868 10.7335 17 10.7335C17.132 10.7335 17.2627 10.7074 17.3845 10.6566C17.5064 10.6058 17.617 10.5315 17.71 10.4377C17.8037 10.3448 17.8781 10.2342 17.9289 10.1123C17.9796 9.99044 18.0058 9.85973 18.0058 9.72772C18.0058 9.59571 17.9796 9.465 17.9289 9.34315C17.8781 9.22129 17.8037 9.11069 17.71 9.01772L12.71 4.01772C12.617 3.92399 12.5064 3.8496 12.3845 3.79883C12.2627 3.74806 12.132 3.72192 12 3.72192C11.868 3.72192 11.7373 3.74806 11.6154 3.79883C11.4935 3.8496 11.3829 3.92399 11.29 4.01772Z" fill="#28190E"/>
</g>
</svg>
