<svg width="24" height="11" viewBox="0 0 24 11" fill="none" xmlns="http://www.w3.org/2000/svg">
<g clip-path="url(#clip0_58_819)">
<path d="M12.7059 8.7042L17.7059 3.7042C17.7991 3.61096 17.8731 3.50027 17.9236 3.37845C17.974 3.25663 18 3.12606 18 2.9942C18 2.7279 17.8942 2.47251 17.7059 2.2842C17.6127 2.19096 17.502 2.117 17.3802 2.06654C17.2583 2.01608 17.1278 1.99011 16.9959 1.99011C16.7296 1.99011 16.4742 2.0959 16.2859 2.2842L11.9959 6.5842L7.70591 2.2842C7.61294 2.19047 7.50234 2.11608 7.38049 2.06531C7.25863 2.01454 7.12792 1.9884 6.99591 1.9884C6.8639 1.9884 6.73319 2.01454 6.61133 2.06531C6.48947 2.11608 6.37887 2.19047 6.28591 2.2842C6.19218 2.37716 6.11779 2.48777 6.06702 2.60962C6.01625 2.73148 5.99011 2.86219 5.99011 2.9942C5.99011 3.12621 6.01625 3.25692 6.06702 3.37878C6.11779 3.50064 6.19218 3.61124 6.28591 3.7042L11.2859 8.7042C11.3789 8.79793 11.4895 8.87233 11.6113 8.92309C11.7332 8.97386 11.8639 9 11.9959 9C12.1279 9 12.2586 8.97386 12.3805 8.92309C12.5023 8.87233 12.6129 8.79793 12.7059 8.7042Z" fill="#28190E"/>
</g>
<defs>
<clipPath id="clip0_58_819">
<rect width="11" height="24" fill="white" transform="matrix(0 1 -1 0 24 0)"/>
</clipPath>
</defs>
</svg>
