<svg width="24" height="11" viewBox="0 0 24 11" fill="none" xmlns="http://www.w3.org/2000/svg">
<g clip-path="url(#clip0_58_814)">
<path d="M11.2941 2.2958L6.29409 7.2958C6.20085 7.38904 6.12689 7.49973 6.07643 7.62155C6.02597 7.74337 6 7.87394 6 8.0058C6 8.2721 6.10579 8.52749 6.29409 8.7158C6.38733 8.80904 6.49802 8.883 6.61984 8.93346C6.74166 8.98392 6.87223 9.00989 7.00409 9.00989C7.27039 9.00989 7.52579 8.9041 7.71409 8.7158L12.0041 4.4158L16.2941 8.7158C16.3871 8.80953 16.4977 8.88392 16.6195 8.93469C16.7414 8.98546 16.8721 9.0116 17.0041 9.0116C17.1361 9.0116 17.2668 8.98546 17.3887 8.93469C17.5105 8.88392 17.6211 8.80953 17.7141 8.7158C17.8078 8.62284 17.8822 8.51223 17.933 8.39038C17.9838 8.26852 18.0099 8.13781 18.0099 8.0058C18.0099 7.87379 17.9838 7.74308 17.933 7.62122C17.8822 7.49936 17.8078 7.38876 17.7141 7.2958L12.7141 2.2958C12.6211 2.20207 12.5105 2.12767 12.3887 2.07691C12.2668 2.02614 12.1361 2 12.0041 2C11.8721 2 11.7414 2.02614 11.6195 2.07691C11.4977 2.12767 11.3871 2.20207 11.2941 2.2958Z" fill="#28190E"/>
</g>
<defs>
<clipPath id="clip0_58_814">
<rect width="11" height="24" fill="white" transform="matrix(0 -1 1 0 0 11)"/>
</clipPath>
</defs>
</svg>
